# Model: Sphere with 90 degree resolution

# This autogenerated model is in the Wavefront .obj file format.
# See: https://en.wikipedia.org/wiki/Wavefront_.obj_file

# List of vertices (x, y, z, [w]):
v  0.000000  1.000000 -0.000000
v  1.000000  0.000000 -0.000000
v  0.000000  0.000000 -1.000000
v -1.000000  0.000000 -0.000000
v -0.000000  0.000000  1.000000
v  0.000000 -1.000000 -0.000000

# List of vertex normals (x, y, z):
vn  0.000000  1.000000 -0.000000
vn  1.000000  0.000000 -0.000000
vn  0.000000  0.000000 -1.000000
vn -1.000000  0.000000 -0.000000
vn -0.000000  0.000000  1.000000
vn  0.000000 -1.000000 -0.000000

# List of faces (v1, v2, v3) in CCW order:
f 1//1 2//2 3//3
f 1//1 3//3 4//4
f 1//1 4//4 5//5
f 1//1 5//5 2//2
f 3//3 2//2 6//6
f 4//4 3//3 6//6
f 5//5 4//4 6//6
f 2//2 5//5 6//6
