# Model: Sphere with 30 degree resolution

# This autogenerated model is in the Wavefront .obj file format.
# See: https://en.wikipedia.org/wiki/Wavefront_.obj_file

# List of vertices (x, y, z, [w]):
v  0.000000  1.000000 -0.000000
v  0.500000  0.866025 -0.000000
v  0.433013  0.866025 -0.250000
v  0.250000  0.866025 -0.433013
v  0.000000  0.866025 -0.500000
v -0.250000  0.866025 -0.433013
v -0.433013  0.866025 -0.250000
v -0.500000  0.866025 -0.000000
v -0.433013  0.866025  0.250000
v -0.250000  0.866025  0.433013
v -0.000000  0.866025  0.500000
v  0.250000  0.866025  0.433013
v  0.433013  0.866025  0.250000
v  0.866025  0.500000 -0.000000
v  0.750000  0.500000 -0.433013
v  0.433013  0.500000 -0.750000
v  0.000000  0.500000 -0.866025
v -0.433013  0.500000 -0.750000
v -0.750000  0.500000 -0.433013
v -0.866025  0.500000 -0.000000
v -0.750000  0.500000  0.433013
v -0.433013  0.500000  0.750000
v -0.000000  0.500000  0.866025
v  0.433013  0.500000  0.750000
v  0.750000  0.500000  0.433013
v  1.000000  0.000000 -0.000000
v  0.866025  0.000000 -0.500000
v  0.500000  0.000000 -0.866025
v  0.000000  0.000000 -1.000000
v -0.500000  0.000000 -0.866025
v -0.866025  0.000000 -0.500000
v -1.000000  0.000000 -0.000000
v -0.866025  0.000000  0.500000
v -0.500000  0.000000  0.866025
v -0.000000  0.000000  1.000000
v  0.500000  0.000000  0.866025
v  0.866025  0.000000  0.500000
v  0.866025 -0.500000 -0.000000
v  0.750000 -0.500000 -0.433013
v  0.433013 -0.500000 -0.750000
v  0.000000 -0.500000 -0.866025
v -0.433013 -0.500000 -0.750000
v -0.750000 -0.500000 -0.433013
v -0.866025 -0.500000 -0.000000
v -0.750000 -0.500000  0.433013
v -0.433013 -0.500000  0.750000
v -0.000000 -0.500000  0.866025
v  0.433013 -0.500000  0.750000
v  0.750000 -0.500000  0.433013
v  0.500000 -0.866025 -0.000000
v  0.433013 -0.866025 -0.250000
v  0.250000 -0.866025 -0.433013
v  0.000000 -0.866025 -0.500000
v -0.250000 -0.866025 -0.433013
v -0.433013 -0.866025 -0.250000
v -0.500000 -0.866025 -0.000000
v -0.433013 -0.866025  0.250000
v -0.250000 -0.866025  0.433013
v -0.000000 -0.866025  0.500000
v  0.250000 -0.866025  0.433013
v  0.433013 -0.866025  0.250000
v  0.000000 -1.000000 -0.000000

# List of vertex normals (x, y, z):
vn  0.000000  1.000000 -0.000000
vn  0.500000  0.866025 -0.000000
vn  0.433013  0.866025 -0.250000
vn  0.250000  0.866025 -0.433013
vn  0.000000  0.866025 -0.500000
vn -0.250000  0.866025 -0.433013
vn -0.433013  0.866025 -0.250000
vn -0.500000  0.866025 -0.000000
vn -0.433013  0.866025  0.250000
vn -0.250000  0.866025  0.433013
vn -0.000000  0.866025  0.500000
vn  0.250000  0.866025  0.433013
vn  0.433013  0.866025  0.250000
vn  0.866025  0.500000 -0.000000
vn  0.750000  0.500000 -0.433013
vn  0.433013  0.500000 -0.750000
vn  0.000000  0.500000 -0.866025
vn -0.433013  0.500000 -0.750000
vn -0.750000  0.500000 -0.433013
vn -0.866025  0.500000 -0.000000
vn -0.750000  0.500000  0.433013
vn -0.433013  0.500000  0.750000
vn -0.000000  0.500000  0.866025
vn  0.433013  0.500000  0.750000
vn  0.750000  0.500000  0.433013
vn  1.000000  0.000000 -0.000000
vn  0.866025  0.000000 -0.500000
vn  0.500000  0.000000 -0.866025
vn  0.000000  0.000000 -1.000000
vn -0.500000  0.000000 -0.866025
vn -0.866025  0.000000 -0.500000
vn -1.000000  0.000000 -0.000000
vn -0.866025  0.000000  0.500000
vn -0.500000  0.000000  0.866025
vn -0.000000  0.000000  1.000000
vn  0.500000  0.000000  0.866025
vn  0.866025  0.000000  0.500000
vn  0.866025 -0.500000 -0.000000
vn  0.750000 -0.500000 -0.433013
vn  0.433013 -0.500000 -0.750000
vn  0.000000 -0.500000 -0.866025
vn -0.433013 -0.500000 -0.750000
vn -0.750000 -0.500000 -0.433013
vn -0.866025 -0.500000 -0.000000
vn -0.750000 -0.500000  0.433013
vn -0.433013 -0.500000  0.750000
vn -0.000000 -0.500000  0.866025
vn  0.433013 -0.500000  0.750000
vn  0.750000 -0.500000  0.433013
vn  0.500000 -0.866025 -0.000000
vn  0.433013 -0.866025 -0.250000
vn  0.250000 -0.866025 -0.433013
vn  0.000000 -0.866025 -0.500000
vn -0.250000 -0.866025 -0.433013
vn -0.433013 -0.866025 -0.250000
vn -0.500000 -0.866025 -0.000000
vn -0.433013 -0.866025  0.250000
vn -0.250000 -0.866025  0.433013
vn -0.000000 -0.866025  0.500000
vn  0.250000 -0.866025  0.433013
vn  0.433013 -0.866025  0.250000
vn  0.000000 -1.000000 -0.000000

# List of faces (v1, v2, v3) in CCW order:
f 1//1 2//2 3//3
f 1//1 3//3 4//4
f 1//1 4//4 5//5
f 1//1 5//5 6//6
f 1//1 6//6 7//7
f 1//1 7//7 8//8
f 1//1 8//8 9//9
f 1//1 9//9 10//10
f 1//1 10//10 11//11
f 1//1 11//11 12//12
f 1//1 12//12 13//13
f 1//1 13//13 2//2
f 3//3 2//2 14//14
f 3//3 14//14 15//15
f 4//4 3//3 15//15
f 4//4 15//15 16//16
f 5//5 4//4 16//16
f 5//5 16//16 17//17
f 6//6 5//5 17//17
f 6//6 17//17 18//18
f 7//7 6//6 18//18
f 7//7 18//18 19//19
f 8//8 7//7 19//19
f 8//8 19//19 20//20
f 9//9 8//8 20//20
f 9//9 20//20 21//21
f 10//10 9//9 21//21
f 10//10 21//21 22//22
f 11//11 10//10 22//22
f 11//11 22//22 23//23
f 12//12 11//11 23//23
f 12//12 23//23 24//24
f 13//13 12//12 24//24
f 13//13 24//24 25//25
f 2//2 13//13 25//25
f 2//2 25//25 14//14
f 15//15 14//14 26//26
f 15//15 26//26 27//27
f 16//16 15//15 27//27
f 16//16 27//27 28//28
f 17//17 16//16 28//28
f 17//17 28//28 29//29
f 18//18 17//17 29//29
f 18//18 29//29 30//30
f 19//19 18//18 30//30
f 19//19 30//30 31//31
f 20//20 19//19 31//31
f 20//20 31//31 32//32
f 21//21 20//20 32//32
f 21//21 32//32 33//33
f 22//22 21//21 33//33
f 22//22 33//33 34//34
f 23//23 22//22 34//34
f 23//23 34//34 35//35
f 24//24 23//23 35//35
f 24//24 35//35 36//36
f 25//25 24//24 36//36
f 25//25 36//36 37//37
f 14//14 25//25 37//37
f 14//14 37//37 26//26
f 27//27 26//26 38//38
f 27//27 38//38 39//39
f 28//28 27//27 39//39
f 28//28 39//39 40//40
f 29//29 28//28 40//40
f 29//29 40//40 41//41
f 30//30 29//29 41//41
f 30//30 41//41 42//42
f 31//31 30//30 42//42
f 31//31 42//42 43//43
f 32//32 31//31 43//43
f 32//32 43//43 44//44
f 33//33 32//32 44//44
f 33//33 44//44 45//45
f 34//34 33//33 45//45
f 34//34 45//45 46//46
f 35//35 34//34 46//46
f 35//35 46//46 47//47
f 36//36 35//35 47//47
f 36//36 47//47 48//48
f 37//37 36//36 48//48
f 37//37 48//48 49//49
f 26//26 37//37 49//49
f 26//26 49//49 38//38
f 39//39 38//38 50//50
f 39//39 50//50 51//51
f 40//40 39//39 51//51
f 40//40 51//51 52//52
f 41//41 40//40 52//52
f 41//41 52//52 53//53
f 42//42 41//41 53//53
f 42//42 53//53 54//54
f 43//43 42//42 54//54
f 43//43 54//54 55//55
f 44//44 43//43 55//55
f 44//44 55//55 56//56
f 45//45 44//44 56//56
f 45//45 56//56 57//57
f 46//46 45//45 57//57
f 46//46 57//57 58//58
f 47//47 46//46 58//58
f 47//47 58//58 59//59
f 48//48 47//47 59//59
f 48//48 59//59 60//60
f 49//49 48//48 60//60
f 49//49 60//60 61//61
f 38//38 49//49 61//61
f 38//38 61//61 50//50
f 51//51 50//50 62//62
f 52//52 51//51 62//62
f 53//53 52//52 62//62
f 54//54 53//53 62//62
f 55//55 54//54 62//62
f 56//56 55//55 62//62
f 57//57 56//56 62//62
f 58//58 57//57 62//62
f 59//59 58//58 62//62
f 60//60 59//59 62//62
f 61//61 60//60 62//62
f 50//50 61//61 62//62
