# Model: Sphere with 45 degree resolution

# This autogenerated model is in the Wavefront .obj file format.
# See: https://en.wikipedia.org/wiki/Wavefront_.obj_file

# List of vertices (x, y, z, [w]):
v  0.000000  1.000000 -0.000000
v  0.707107  0.707107 -0.000000
v  0.500000  0.707107 -0.500000
v  0.000000  0.707107 -0.707107
v -0.500000  0.707107 -0.500000
v -0.707107  0.707107 -0.000000
v -0.500000  0.707107  0.500000
v -0.000000  0.707107  0.707107
v  0.500000  0.707107  0.500000
v  1.000000  0.000000 -0.000000
v  0.707107  0.000000 -0.707107
v  0.000000  0.000000 -1.000000
v -0.707107  0.000000 -0.707107
v -1.000000  0.000000 -0.000000
v -0.707107  0.000000  0.707107
v -0.000000  0.000000  1.000000
v  0.707107  0.000000  0.707107
v  0.707107 -0.707107 -0.000000
v  0.500000 -0.707107 -0.500000
v  0.000000 -0.707107 -0.707107
v -0.500000 -0.707107 -0.500000
v -0.707107 -0.707107 -0.000000
v -0.500000 -0.707107  0.500000
v -0.000000 -0.707107  0.707107
v  0.500000 -0.707107  0.500000
v  0.000000 -1.000000 -0.000000

# List of vertex normals (x, y, z):
vn  0.000000  1.000000 -0.000000
vn  0.707107  0.707107 -0.000000
vn  0.500000  0.707107 -0.500000
vn  0.000000  0.707107 -0.707107
vn -0.500000  0.707107 -0.500000
vn -0.707107  0.707107 -0.000000
vn -0.500000  0.707107  0.500000
vn -0.000000  0.707107  0.707107
vn  0.500000  0.707107  0.500000
vn  1.000000  0.000000 -0.000000
vn  0.707107  0.000000 -0.707107
vn  0.000000  0.000000 -1.000000
vn -0.707107  0.000000 -0.707107
vn -1.000000  0.000000 -0.000000
vn -0.707107  0.000000  0.707107
vn -0.000000  0.000000  1.000000
vn  0.707107  0.000000  0.707107
vn  0.707107 -0.707107 -0.000000
vn  0.500000 -0.707107 -0.500000
vn  0.000000 -0.707107 -0.707107
vn -0.500000 -0.707107 -0.500000
vn -0.707107 -0.707107 -0.000000
vn -0.500000 -0.707107  0.500000
vn -0.000000 -0.707107  0.707107
vn  0.500000 -0.707107  0.500000
vn  0.000000 -1.000000 -0.000000

# List of faces (v1, v2, v3) in CCW order:
f 1//1 2//2 3//3
f 1//1 3//3 4//4
f 1//1 4//4 5//5
f 1//1 5//5 6//6
f 1//1 6//6 7//7
f 1//1 7//7 8//8
f 1//1 8//8 9//9
f 1//1 9//9 2//2
f 3//3 2//2 10//10
f 3//3 10//10 11//11
f 4//4 3//3 11//11
f 4//4 11//11 12//12
f 5//5 4//4 12//12
f 5//5 12//12 13//13
f 6//6 5//5 13//13
f 6//6 13//13 14//14
f 7//7 6//6 14//14
f 7//7 14//14 15//15
f 8//8 7//7 15//15
f 8//8 15//15 16//16
f 9//9 8//8 16//16
f 9//9 16//16 17//17
f 2//2 9//9 17//17
f 2//2 17//17 10//10
f 11//11 10//10 18//18
f 11//11 18//18 19//19
f 12//12 11//11 19//19
f 12//12 19//19 20//20
f 13//13 12//12 20//20
f 13//13 20//20 21//21
f 14//14 13//13 21//21
f 14//14 21//21 22//22
f 15//15 14//14 22//22
f 15//15 22//22 23//23
f 16//16 15//15 23//23
f 16//16 23//23 24//24
f 17//17 16//16 24//24
f 17//17 24//24 25//25
f 10//10 17//17 25//25
f 10//10 25//25 18//18
f 19//19 18//18 26//26
f 20//20 19//19 26//26
f 21//21 20//20 26//26
f 22//22 21//21 26//26
f 23//23 22//22 26//26
f 24//24 23//23 26//26
f 25//25 24//24 26//26
f 18//18 25//25 26//26
